{"title":"The Lake House - AVM","uid":5045314,"size":255298662,"categoryP":"video","categoryS":"handheld","magnet":"?xt=urn:btih:e4740d6b5d15651918ce295339596514680e0aaa&amp;dn=The+Lake+House+-+AVM&amp;tr=udp%3A%2F%2Ftracker.openbittorrent.com%3A80&amp;tr=udp%3A%2F%2Fopen.demonii.com%3A1337&amp;tr=udp%3A%2F%2Ftracker.coppersurfer.tk%3A6969&amp;tr=udp%3A%2F%2Fexodus.desync.com%3A6969","seeders":0,"leechers":0,"uploader":"AVIDM","files":1,"time":1249595578,"description":"AVIDMobile - http://www.avidmobile.com.ar (Mobile media)\n\nVideo\nID                               : 1\nFormat                           : MPEG-4 Visual\nFormat profile                   : Advanced Simple@L5\nFormat settings, BVOP            : Yes\nFormat settings, QPel            : No\nFormat settings, GMC             : No warppoints\nFormat settings, Matrix          : Default (H.263)\nCodec ID                         : 20\nDuration                         : 1h 38mn\nBit rate mode                    : Variable\nBit rate                         : 279 Kbps\nMaximum bit rate                 : 1 048 Kbps\nWidth                            : 320 pixels\nHeight                           : 240 pixels\nDisplay aspect ratio             : 4/3\nFrame rate mode                  : Variable\nFrame rate                       : 23.976 fps\nMinimum frame rate               : 23.974 fps\nMaximum frame rate               : 23.981 fps\nResolution                       : 24 bits\nColorimetry                      : 4:2:0\nScan type                        : Progressive\nBits/(Pixel*Frame)               : 0.152\nStream size                      : 197 MiB (81%)\n\nAudio\nID                               : 2\nFormat                           : AAC\nFormat/Info                      : Advanced Audio Codec\nFormat version                   : Version 4\nFormat profile                   : LC\nFormat settings, SBR             : No\nCodec ID                         : 40\nDuration                         : 1h 38mn\nBit rate mode                    : Variable\nBit rate                         : 62.8 Kbps\nMaximum bit rate                 : 84.6 Kbps\nChannel(s)                       : 2 channels\nChannel positions                : L R\nSampling rate                    : 22.05 KHz\nResolution                       : 16 bits\nStream size                      : 44.2 MiB (18%)","torrent":{"xt":"urn:btih:e4740d6b5d15651918ce295339596514680e0aaa","amp;dn":"The+Lake+House+-+AVM","amp;tr":["udp%3A%2F%2Ftracker.openbittorrent.com%3A80","udp%3A%2F%2Fopen.demonii.com%3A1337","udp%3A%2F%2Ftracker.coppersurfer.tk%3A6969","udp%3A%2F%2Fexodus.desync.com%3A6969"],"infoHash":"e4740d6b5d15651918ce295339596514680e0aaa","infoHashBuffer":{"type":"Buffer","data":[228,116,13,107,93,21,101,25,24,206,41,83,57,89,101,20,104,14,10,170]},"announce":[],"urlList":[]}}